<svg width="80" height="80" viewBox="0 0 80 80" fill="none" xmlns="http://www.w3.org/2000/svg">
<g clip-path="url(#clip0_328_83)">
<path d="M55.3001 25.2667L33.3334 47.2333L21.3667 35.3L16.6667 40L33.3334 56.6667L60.0001 30L55.3001 25.2667ZM40.0001 6.66667C21.6001 6.66667 6.66675 21.6 6.66675 40C6.66675 58.4 21.6001 73.3333 40.0001 73.3333C58.4001 73.3333 73.3334 58.4 73.3334 40C73.3334 21.6 58.4001 6.66667 40.0001 6.66667ZM40.0001 66.6667C25.2667 66.6667 13.3334 54.7333 13.3334 40C13.3334 25.2667 25.2667 13.3333 40.0001 13.3333C54.7334 13.3333 66.6667 25.2667 66.6667 40C66.6667 54.7333 54.7334 66.6667 40.0001 66.6667Z" fill="#495E57"/>
</g>
<defs>
<clipPath id="clip0_328_83">
<rect width="80" height="80" fill="white"/>
</clipPath>
</defs>
</svg>
